<?xml version="1.0" standalone="no"?>
<!DOCTYPE svg PUBLIC "-//W3C//DTD SVG 20010904//EN"
 "http://www.w3.org/TR/2001/REC-SVG-20010904/DTD/svg10.dtd">
<svg version="1.0" xmlns="http://www.w3.org/2000/svg"
 width="500.000000pt" height="500.000000pt" viewBox="0 0 500.000000 500.000000"
 preserveAspectRatio="xMidYMid meet">
<metadata>
Created by potrace 1.14, written by Peter Selinger 2001-2017
</metadata>
<g transform="translate(0.000000,500.000000) scale(0.100000,-0.100000)"
fill="#000000" stroke="none">
<path d="M2285 4314 c-683 -73 -1287 -558 -1514 -1218 -63 -182 -92 -350 -95
-541 -1 -140 11 -315 28 -395 3 -14 8 -34 10 -45 16 -80 69 -249 98 -314 11
-25 30 -66 41 -91 36 -79 138 -242 205 -329 291 -374 758 -641 1207 -689 78
-9 406 -9 470 0 585 78 1105 444 1381 972 96 183 156 370 189 586 14 86 13
408 0 500 -37 258 -139 530 -281 748 -252 387 -659 676 -1094 777 -90 21 -170
36 -222 41 -112 11 -310 10 -423 -2z m368 -29 c49 -3 98 -8 110 -11 12 -2 38
-7 57 -10 628 -109 1174 -585 1376 -1200 63 -195 89 -356 89 -569 0 -151 -7
-224 -35 -359 -103 -500 -423 -935 -875 -1191 -165 -94 -307 -149 -487 -189
-150 -34 -221 -41 -393 -41 -163 1 -244 9 -375 37 -539 115 -1006 486 -1241
982 -252 535 -228 1157 63 1656 95 163 147 231 286 374 290 296 724 498 1125
522 56 4 103 8 105 9 3 2 82 -1 195 -10z"/>
<path d="M2397 4244 c-1 -1 -38 -5 -82 -8 -44 -3 -92 -8 -105 -11 -14 -3 -36
-7 -50 -10 -132 -25 -307 -87 -455 -161 -516 -261 -875 -775 -942 -1349 -14
-118 -7 -404 13 -500 3 -11 7 -36 10 -55 9 -57 54 -209 85 -288 64 -160 171
-346 267 -462 59 -71 203 -215 267 -267 230 -185 529 -317 839 -369 80 -13
424 -12 516 2 408 63 788 272 1059 584 108 125 166 211 239 350 87 169 141
332 172 525 23 140 21 435 -4 570 -89 483 -363 900 -766 1167 -212 140 -517
250 -760 274 -64 6 -298 12 -303 8z m338 -43 c287 -40 571 -158 808 -338 68
-51 253 -233 309 -303 65 -82 149 -218 198 -322 109 -230 160 -447 165 -713 5
-250 -31 -448 -120 -667 -217 -528 -655 -902 -1215 -1036 -126 -31 -196 -37
-400 -37 -197 1 -323 19 -485 70 -619 197 -1059 697 -1186 1348 -29 149 -31
439 -4 582 37 191 79 316 160 480 136 271 340 501 600 672 212 141 510 247
755 269 41 3 76 7 78 9 7 6 268 -5 337 -14z"/>
<path d="M2273 3883 c-25 -5 -26 -12 -13 -88 4 -28 4 -55 -1 -61 -6 -7 1 -9
22 -6 17 3 27 7 21 11 -5 3 -12 20 -13 36 -3 25 0 31 19 33 12 2 22 -2 22 -9
0 -7 2 -10 5 -7 3 3 3 12 -1 21 -4 12 -11 14 -29 7 -20 -7 -24 -5 -28 16 -6
32 18 52 43 36 16 -10 18 -9 14 3 -6 15 -18 16 -61 8z"/>
<path d="M2744 3871 c3 -4 -3 -38 -13 -74 l-18 -65 24 -5 c16 -3 21 -1 15 5
-7 7 -4 32 8 74 9 35 15 66 12 69 -9 9 -34 6 -28 -4z"/>
<path d="M2825 3845 c17 -48 4 -106 -27 -118 -9 -4 -8 -6 2 -6 24 -1 50 24 60
58 7 27 5 35 -17 59 -19 21 -23 23 -18 7z"/>
<path d="M2017 3814 c-3 -4 1 -17 10 -31 14 -21 14 -26 2 -34 -12 -7 -11 -9 2
-9 15 0 35 -41 31 -61 -1 -4 7 -5 17 -2 17 4 17 8 6 30 -8 14 -19 46 -27 69
-11 41 -25 53 -41 38z"/>
<path d="M1928 3783 c-13 -3 -15 -8 -8 -21 23 -40 50 -115 44 -124 -4 -6 3 -5
15 2 15 7 19 15 13 23 -12 16 -47 110 -44 120 1 4 1 6 0 6 -2 -1 -11 -3 -20
-6z"/>
<path d="M3042 3732 c-34 -82 -35 -89 -19 -95 7 -3 14 0 14 7 0 7 11 37 26 68
19 42 22 59 14 66 -9 7 -19 -6 -35 -46z"/>
<path d="M2330 3750 c-12 -8 -11 -10 8 -10 12 0 22 5 22 10 0 13 -11 13 -30 0z"/>
<path d="M1990 3730 c-9 -6 -10 -10 -3 -10 6 0 15 5 18 10 8 12 4 12 -15 0z"/>
<path d="M1730 3682 c0 -4 -14 -16 -31 -26 -17 -10 -27 -21 -22 -25 15 -10 78
-105 75 -114 -1 -4 7 -2 17 5 16 9 17 14 7 22 -7 6 -28 32 -45 59 -27 39 -29
48 -17 53 9 3 23 4 31 0 13 -4 14 -2 5 14 -11 21 -20 26 -20 12z"/>
<path d="M3260 3631 c0 -33 -6 -56 -20 -74 -17 -22 -18 -26 -5 -37 12 -10 15
-10 15 0 0 7 17 29 38 48 21 20 27 30 15 24 -22 -12 -22 -11 -18 32 4 33 1 45
-10 50 -12 4 -15 -4 -15 -43z"/>
<path d="M1641 3621 c-8 -5 -10 -14 -6 -21 6 -9 10 -8 17 4 12 21 7 28 -11 17z"/>
<path d="M3335 3610 c-3 -5 3 -10 15 -10 12 0 18 5 15 10 -3 6 -10 10 -15 10
-5 0 -12 -4 -15 -10z"/>
<path d="M2325 3485 c-395 -72 -723 -399 -811 -810 -11 -52 -13 -258 -3 -320
32 -206 136 -404 292 -559 189 -189 406 -283 667 -292 244 -8 446 59 637 211
181 142 315 350 370 571 23 95 23 333 0 428 -73 294 -283 555 -552 685 -109
53 -116 55 -253 84 -87 18 -250 19 -347 2z m385 -33 c385 -93 691 -418 754
-804 12 -75 13 -248 2 -298 -4 -14 -9 -38 -12 -54 -18 -99 -102 -278 -177
-375 -135 -175 -322 -306 -517 -361 -233 -65 -494 -37 -703 73 -274 146 -486
445 -525 740 -11 86 -7 236 8 302 6 28 13 57 15 65 8 37 40 120 67 175 120
240 333 430 573 511 159 54 357 64 515 26z"/>
<path d="M2271 3027 c-6 -8 -14 -29 -17 -48 -4 -19 -88 -249 -186 -511 -99
-263 -178 -484 -175 -492 4 -11 23 -15 71 -15 l65 0 38 100 38 99 62 0 62 0
-33 -84 c-41 -105 -37 -116 43 -116 35 0 62 5 68 13 5 6 40 94 78 195 37 100
74 186 82 190 7 4 28 6 47 4 l34 -4 74 -196 75 -197 69 0 69 0 -2 28 c-2 23
-55 175 -93 262 -4 11 -15 39 -24 63 l-16 43 62 -3 63 -3 71 -189 c39 -104 78
-192 86 -197 8 -4 39 -7 69 -6 47 2 54 5 57 23 2 12 -22 87 -52 165 -179 469
-296 783 -296 798 0 9 -5 33 -11 54 l-10 37 -228 0 c-179 0 -231 -3 -240 -13z
m433 -53 c3 -9 6 -20 6 -25 0 -5 -87 -9 -205 -9 -118 0 -205 4 -205 9 0 40 6
41 205 41 167 0 194 -2 199 -16z m-536 -506 c-88 -233 -162 -431 -165 -440 -3
-11 -15 -18 -30 -18 -20 0 -24 4 -18 18 4 9 38 100 77 202 79 210 163 431 215
568 30 79 38 92 58 92 21 0 14 -23 -137 -422z m332 418 c0 -3 -12 -37 -26 -75
l-26 -71 -60 0 c-67 0 -65 -8 -26 98 l19 52 60 0 c32 0 59 -2 59 -4z m100 -2
c0 -3 -11 -33 -24 -67 -13 -34 -48 -125 -77 -202 -224 -596 -225 -600 -248
-603 -11 -2 -21 0 -21 5 0 4 27 80 61 168 33 88 101 268 151 400 119 318 113
305 137 305 12 0 21 -3 21 -6z m162 -99 c21 -55 46 -122 57 -150 23 -64 97
-259 172 -454 32 -85 59 -159 59 -164 0 -4 -10 -7 -22 -5 -21 3 -45 61 -249
608 -28 74 -61 163 -75 197 -29 75 -29 75 -2 71 18 -2 29 -22 60 -103z m-59
-108 c31 -85 57 -156 57 -159 0 -10 -110 -6 -118 6 -5 6 -21 45 -36 86 l-27
74 28 73 c15 40 30 73 33 73 3 0 31 -69 63 -153z m-283 3 c0 -5 -9 -34 -20
-63 l-20 -54 -59 -1 -59 0 8 26 c5 15 14 44 21 65 l12 37 59 0 c32 0 58 -4 58
-10z m160 -152 c0 -25 -40 -18 -46 8 -3 12 0 33 7 46 l12 23 13 -30 c7 -16 13
-38 14 -47z m-243 -78 l-22 -60 -62 0 -61 0 20 52 c11 29 22 56 24 60 3 5 32
8 64 8 l59 0 -22 -60z m453 1 c0 -5 3 -16 6 -24 5 -13 -16 -15 -156 -15 -135
1 -160 3 -155 15 3 8 5 19 5 24 0 5 66 9 150 9 84 0 150 -4 150 -9z m-95 -218
c26 -71 56 -149 66 -175 l19 -48 -24 0 c-21 0 -29 14 -71 128 -26 70 -56 148
-66 175 l-19 47 23 0 c21 0 29 -15 72 -127z m-405 100 c0 -3 -9 -32 -21 -64
l-21 -57 -59 -1 c-32 0 -59 3 -59 6 0 3 9 31 21 62 l20 57 60 1 c32 1 59 -1
59 -4z"/>
<path d="M3274 1432 c-6 -4 -8 -16 -4 -27 6 -17 7 -16 12 8 3 15 5 27 4 27 0
0 -6 -4 -12 -8z"/>
<path d="M1749 1398 c0 -2 -3 -28 -5 -58 -3 -30 -10 -57 -16 -61 -5 -4 -2 -9
8 -13 9 -3 18 -5 19 -4 2 2 6 33 10 71 4 45 3 67 -4 67 -6 0 -11 -1 -12 -2z"/>
<path d="M3195 1381 c-3 -5 11 -15 30 -21 20 -7 45 -25 57 -40 12 -17 26 -26
35 -23 8 3 11 9 6 12 -5 3 -19 19 -31 35 -12 16 -22 26 -22 22 0 -4 -13 0 -30
9 -34 18 -37 18 -45 6z"/>
<path d="M1687 1354 c-21 -14 -36 -28 -33 -31 2 -3 11 0 18 6 7 6 24 20 38 31
36 28 21 24 -23 -6z"/>
<path d="M3054 1295 c-7 -15 -4 -32 16 -71 15 -27 32 -48 38 -46 8 2 5 17 -10
45 -11 23 -24 53 -28 67 -6 24 -7 24 -16 5z"/>
<path d="M1931 1254 c-31 -39 -28 -62 13 -94 19 -15 19 -14 3 11 -19 29 -15
52 16 87 17 18 18 22 4 22 -8 0 -25 -12 -36 -26z"/>
<path d="M2025 1259 c11 -13 21 -26 22 -28 2 -2 3 2 3 10 0 8 -10 20 -22 28
l-23 14 20 -24z"/>
<path d="M2943 1253 c-10 -3 -10 -8 1 -19 8 -8 18 -14 23 -14 4 0 22 -14 40
-30 39 -37 43 -37 43 -4 0 15 -4 23 -10 19 -6 -4 -26 7 -46 24 -19 17 -36 31
-37 30 -1 0 -8 -3 -14 -6z"/>
<path d="M2775 1200 c3 -5 10 -10 16 -10 5 0 9 5 9 10 0 6 -7 10 -16 10 -8 0
-12 -4 -9 -10z"/>
<path d="M2220 1167 c-19 -26 -20 -29 -3 -14 19 17 20 16 32 -38 7 -32 18 -55
25 -55 11 0 10 14 -4 66 -10 36 -20 67 -22 69 -2 3 -15 -10 -28 -28z"/>
<path d="M2724 1178 c4 -13 9 -44 12 -69 6 -42 8 -45 30 -41 20 4 22 6 10 16
-13 11 -31 79 -27 104 1 6 -6 12 -15 12 -12 0 -15 -6 -10 -22z"/>
<path d="M2975 1175 c4 -11 8 -26 8 -32 0 -7 6 -13 14 -13 10 0 10 6 -4 28
-23 36 -28 41 -18 17z"/>
<path d="M2455 1109 c0 -55 3 -69 15 -69 12 0 15 14 15 68 0 53 -3 68 -15 69
-12 1 -15 -12 -15 -68z"/>
<path d="M2527 1163 c22 -8 27 -70 9 -98 -16 -25 -16 -25 3 -13 11 6 24 21 29
32 15 34 -12 87 -43 85 -5 0 -5 -3 2 -6z"/>
<path d="M1990 1150 c-23 -7 -23 -8 -3 -9 12 -1 25 4 28 9 3 6 5 10 3 9 -2 -1
-14 -5 -28 -9z"/>
<path d="M2782 1151 c-11 -7 -11 -9 2 -14 10 -4 16 -1 16 8 0 17 -1 17 -18 6z"/>
<path d="M2183 1118 c-18 -24 -24 -38 -16 -38 4 0 13 11 20 25 12 27 11 32 -4
13z"/>
<path d="M2806 1095 c-3 -8 -1 -15 4 -15 6 0 10 7 10 15 0 8 -2 15 -4 15 -2 0
-6 -7 -10 -15z"/>
</g>
</svg>
